<svg xmlns="http://www.w3.org/2000/svg" width="32" height="175" viewBox="0 0 32 175"><defs><style>.cls-1,.cls-3,.cls-4{fill:none;}.cls-1,.cls-2,.cls-3,.cls-4{stroke:#e20612;stroke-linecap:round;stroke-linejoin:round;}.cls-1,.cls-2{stroke-width:2.3px;}.cls-2{fill:#e20612;}.cls-3{stroke-width:2.2px;}.cls-4{stroke-width:2px;}</style></defs><title>Asset 4</title><g id="Layer_2" data-name="Layer 2"><g id="Asset_3" data-name="Asset 3"><g id="Asset_1-Layer_2" data-name="Asset 1-Layer 2"><g id="Asset_1-Layer_1-2" data-name="Asset 1-Layer 1-2"><circle class="cls-1" cx="15.9" cy="15.88" r="12.97"/><path class="cls-1" d="M7,25.42,5.3,29.09m19.51-3.67,1.71,3.67M25.05,1.15a17.41,17.41,0,0,1,5.62,5.64m0,0a17.41,17.41,0,0,0-5.62-5.64m-18.28,0A17.41,17.41,0,0,0,1.15,6.79m10.47,8.88,3.48,2.56L21.67,12"/></g></g><path class="cls-1" d="M15.91,59.61S1.4,50.47,1.4,42.19a7.43,7.43,0,0,1,7.26-7.56c4,0,7.25,4.47,7.25,4.47s3.25-4.47,7.26-4.47a7.43,7.43,0,0,1,7.26,7.56C30.43,50.47,15.91,59.61,15.91,59.61Z"/><path class="cls-2" d="M15.91,91.61S1.4,82.47,1.4,74.19a7.43,7.43,0,0,1,7.26-7.56c4,0,7.25,4.47,7.25,4.47s3.25-4.47,7.26-4.47a7.43,7.43,0,0,1,7.26,7.56C30.43,82.47,15.91,91.61,15.91,91.61Z"/><path class="cls-3" d="M15.08,169.37a13.83,13.83,0,0,0,13.83-13.83H1.25A13.83,13.83,0,0,0,15.08,169.37Z"/><line class="cls-3" x1="9.5" y1="173.56" x2="20.66" y2="173.56"/><line class="cls-3" x1="25.51" y1="151.23" x2="30.55" y2="144.68"/><path class="cls-4" d="M25.31,119.33a3.23,3.23,0,0,0-1.15,2.56A3.17,3.17,0,0,0,28,118.68,3.18,3.18,0,0,0,25.31,119.33Z"/><path class="cls-4" d="M26.17,124.49a3.68,3.68,0,0,0-2.74.6,3.43,3.43,0,0,0-2.73-.63c-2.13.62-3.3,3-2.56,5.57s3.09,4.15,5.24,3.6h0c2.15.57,4.51-1,5.28-3.55S28.31,125.11,26.17,124.49Z"/><path class="cls-4" d="M24.5,115.27l0-6.4a2.46,2.46,0,0,0-2.45-2.47l-18.27-.1a2.46,2.46,0,0,0-2.47,2.45L1.24,129.4a2.47,2.47,0,0,0,2.45,2.47l10.92,0"/><rect class="cls-4" x="4.35" y="110.02" width="17.16" height="4.7" transform="translate(0.58 -0.07) rotate(0.3)"/><rect class="cls-4" x="6.08" y="119.32" width="1.55" height="1.55" transform="translate(0.62 -0.03) rotate(0.3)"/><rect class="cls-4" x="18.16" y="119.38" width="1.55" height="1.55" transform="translate(0.62 -0.1) rotate(0.3)"/><rect class="cls-4" x="12.12" y="119.35" width="1.55" height="1.55" transform="translate(0.62 -0.07) rotate(0.3)"/><rect class="cls-4" x="6.04" y="125.84" width="1.55" height="1.55" transform="translate(0.65 -0.03) rotate(0.3)"/><rect class="cls-4" x="12.08" y="125.87" width="1.55" height="1.55" transform="translate(0.66 -0.06) rotate(0.3)"/></g></g></svg>